<mxfile host="app.diagrams.net" agent="Mozilla/5.0 (Windows NT 10.0; Win64; x64; rv:139.0) Gecko/20100101 Firefox/139.0" version="27.1.6">
  <diagram name="Page-1" id="dIAE8z6tXeN05Kj7Ohbh">
    <mxGraphModel dx="826" dy="1556" grid="1" gridSize="10" guides="1" tooltips="1" connect="1" arrows="1" fold="1" page="1" pageScale="1" pageWidth="850" pageHeight="1100" math="0" shadow="0">
      <root>
        <mxCell id="0" />
        <mxCell id="1" parent="0" />
        <mxCell id="tO3C_mZQZG0I-P-b3N0P-1" value="" style="swimlane;startSize=0;" vertex="1" parent="1">
          <mxGeometry x="250" y="20" width="310" height="420" as="geometry">
            <mxRectangle x="250" y="60" width="50" height="40" as="alternateBounds" />
          </mxGeometry>
        </mxCell>
        <mxCell id="tO3C_mZQZG0I-P-b3N0P-5" value="&lt;div&gt;Manage&lt;/div&gt;&lt;div&gt;Tours&lt;/div&gt;" style="ellipse;whiteSpace=wrap;html=1;" vertex="1" parent="tO3C_mZQZG0I-P-b3N0P-1">
          <mxGeometry x="50" y="75" width="90" height="50" as="geometry" />
        </mxCell>
        <mxCell id="tO3C_mZQZG0I-P-b3N0P-6" value="&lt;div&gt;Manage&lt;/div&gt;&lt;div&gt;Tour Logs&lt;/div&gt;" style="ellipse;whiteSpace=wrap;html=1;" vertex="1" parent="tO3C_mZQZG0I-P-b3N0P-1">
          <mxGeometry x="200" y="75" width="90" height="50" as="geometry" />
        </mxCell>
        <mxCell id="tO3C_mZQZG0I-P-b3N0P-7" value="&lt;div&gt;Search&lt;/div&gt;&lt;div&gt;Tours&lt;/div&gt;" style="ellipse;whiteSpace=wrap;html=1;" vertex="1" parent="tO3C_mZQZG0I-P-b3N0P-1">
          <mxGeometry x="50" y="145" width="90" height="50" as="geometry" />
        </mxCell>
        <mxCell id="tO3C_mZQZG0I-P-b3N0P-8" value="&lt;div&gt;Import&lt;/div&gt;&lt;div&gt;Tours&lt;/div&gt;" style="ellipse;whiteSpace=wrap;html=1;" vertex="1" parent="tO3C_mZQZG0I-P-b3N0P-1">
          <mxGeometry x="50" y="215" width="90" height="50" as="geometry" />
        </mxCell>
        <mxCell id="tO3C_mZQZG0I-P-b3N0P-9" value="&lt;div&gt;Export&lt;/div&gt;&lt;div&gt;Tours&lt;/div&gt;" style="ellipse;whiteSpace=wrap;html=1;" vertex="1" parent="tO3C_mZQZG0I-P-b3N0P-1">
          <mxGeometry x="50" y="295" width="90" height="50" as="geometry" />
        </mxCell>
        <mxCell id="tO3C_mZQZG0I-P-b3N0P-10" value="&lt;div&gt;Export&lt;/div&gt;&lt;div&gt;Single Tour&lt;/div&gt;&lt;div&gt;Report&lt;/div&gt;" style="ellipse;whiteSpace=wrap;html=1;" vertex="1" parent="tO3C_mZQZG0I-P-b3N0P-1">
          <mxGeometry x="200" y="215" width="90" height="50" as="geometry" />
        </mxCell>
        <mxCell id="tO3C_mZQZG0I-P-b3N0P-11" value="&lt;div&gt;Export&lt;/div&gt;&lt;div&gt;Summary Report&lt;/div&gt;" style="ellipse;whiteSpace=wrap;html=1;" vertex="1" parent="tO3C_mZQZG0I-P-b3N0P-1">
          <mxGeometry x="200" y="285" width="90" height="50" as="geometry" />
        </mxCell>
        <mxCell id="tO3C_mZQZG0I-P-b3N0P-12" value="&lt;div&gt;Export&lt;/div&gt;&lt;div&gt;.tours file&lt;/div&gt;" style="ellipse;whiteSpace=wrap;html=1;" vertex="1" parent="tO3C_mZQZG0I-P-b3N0P-1">
          <mxGeometry x="200" y="355" width="90" height="50" as="geometry" />
        </mxCell>
        <mxCell id="tO3C_mZQZG0I-P-b3N0P-15" value="&lt;div&gt;Search&lt;/div&gt;&lt;div&gt;TourLogs&lt;/div&gt;" style="ellipse;whiteSpace=wrap;html=1;" vertex="1" parent="tO3C_mZQZG0I-P-b3N0P-1">
          <mxGeometry x="200" y="145" width="90" height="50" as="geometry" />
        </mxCell>
        <mxCell id="tO3C_mZQZG0I-P-b3N0P-20" value="&lt;div&gt;Calculate&lt;/div&gt;&lt;div&gt;Route&lt;/div&gt;" style="ellipse;whiteSpace=wrap;html=1;" vertex="1" parent="tO3C_mZQZG0I-P-b3N0P-1">
          <mxGeometry x="200" y="10" width="90" height="50" as="geometry" />
        </mxCell>
        <mxCell id="tO3C_mZQZG0I-P-b3N0P-21" value="" style="endArrow=none;dashed=1;html=1;dashPattern=1 3;strokeWidth=2;rounded=0;entryX=0.885;entryY=0.197;entryDx=0;entryDy=0;entryPerimeter=0;endFill=0;startFill=0;startArrow=open;exitX=0.045;exitY=0.674;exitDx=0;exitDy=0;exitPerimeter=0;" edge="1" parent="tO3C_mZQZG0I-P-b3N0P-1" source="tO3C_mZQZG0I-P-b3N0P-20" target="tO3C_mZQZG0I-P-b3N0P-5">
          <mxGeometry width="50" height="50" relative="1" as="geometry">
            <mxPoint x="187.85752849430105" y="31.7" as="sourcePoint" />
            <mxPoint x="175" y="75.00000000000018" as="targetPoint" />
          </mxGeometry>
        </mxCell>
        <mxCell id="tO3C_mZQZG0I-P-b3N0P-22" value="" style="endArrow=none;dashed=1;html=1;dashPattern=1 3;strokeWidth=2;rounded=0;exitX=0.999;exitY=0.58;exitDx=0;exitDy=0;exitPerimeter=0;entryX=-0.014;entryY=0.58;entryDx=0;entryDy=0;entryPerimeter=0;endFill=0;startFill=0;startArrow=open;" edge="1" parent="tO3C_mZQZG0I-P-b3N0P-1" source="tO3C_mZQZG0I-P-b3N0P-5" target="tO3C_mZQZG0I-P-b3N0P-6">
          <mxGeometry width="50" height="50" relative="1" as="geometry">
            <mxPoint x="140" y="118" as="sourcePoint" />
            <mxPoint x="213" y="75" as="targetPoint" />
          </mxGeometry>
        </mxCell>
        <mxCell id="tO3C_mZQZG0I-P-b3N0P-23" value="" style="endArrow=none;dashed=1;html=1;dashPattern=1 3;strokeWidth=2;rounded=0;exitX=-0.02;exitY=0.491;exitDx=0;exitDy=0;exitPerimeter=0;entryX=1;entryY=0.5;entryDx=0;entryDy=0;endFill=0;startFill=0;startArrow=open;" edge="1" parent="tO3C_mZQZG0I-P-b3N0P-1" source="tO3C_mZQZG0I-P-b3N0P-15" target="tO3C_mZQZG0I-P-b3N0P-7">
          <mxGeometry width="50" height="50" relative="1" as="geometry">
            <mxPoint x="141" y="190" as="sourcePoint" />
            <mxPoint x="200" y="190" as="targetPoint" />
          </mxGeometry>
        </mxCell>
        <mxCell id="tO3C_mZQZG0I-P-b3N0P-24" value="" style="endArrow=none;dashed=1;html=1;dashPattern=1 3;strokeWidth=2;rounded=0;exitX=0.925;exitY=0.191;exitDx=0;exitDy=0;exitPerimeter=0;entryX=0.051;entryY=0.736;entryDx=0;entryDy=0;endFill=0;startFill=0;startArrow=open;entryPerimeter=0;" edge="1" parent="tO3C_mZQZG0I-P-b3N0P-1" source="tO3C_mZQZG0I-P-b3N0P-9" target="tO3C_mZQZG0I-P-b3N0P-10">
          <mxGeometry width="50" height="50" relative="1" as="geometry">
            <mxPoint x="204" y="295" as="sourcePoint" />
            <mxPoint x="146" y="295" as="targetPoint" />
          </mxGeometry>
        </mxCell>
        <mxCell id="tO3C_mZQZG0I-P-b3N0P-25" value="" style="endArrow=none;dashed=1;html=1;dashPattern=1 3;strokeWidth=2;rounded=0;exitX=1.027;exitY=0.53;exitDx=0;exitDy=0;exitPerimeter=0;entryX=-0.02;entryY=0.574;entryDx=0;entryDy=0;endFill=0;startFill=0;startArrow=open;entryPerimeter=0;" edge="1" parent="tO3C_mZQZG0I-P-b3N0P-1" source="tO3C_mZQZG0I-P-b3N0P-9" target="tO3C_mZQZG0I-P-b3N0P-11">
          <mxGeometry width="50" height="50" relative="1" as="geometry">
            <mxPoint x="170" y="333" as="sourcePoint" />
            <mxPoint x="242" y="280" as="targetPoint" />
          </mxGeometry>
        </mxCell>
        <mxCell id="tO3C_mZQZG0I-P-b3N0P-42" value="" style="endArrow=none;dashed=1;html=1;dashPattern=1 3;strokeWidth=2;rounded=0;exitX=1;exitY=1;exitDx=0;exitDy=0;endFill=0;startFill=0;startArrow=open;" edge="1" parent="tO3C_mZQZG0I-P-b3N0P-1" source="tO3C_mZQZG0I-P-b3N0P-9" target="tO3C_mZQZG0I-P-b3N0P-12">
          <mxGeometry width="50" height="50" relative="1" as="geometry">
            <mxPoint x="144" y="353" as="sourcePoint" />
            <mxPoint x="200" y="345" as="targetPoint" />
          </mxGeometry>
        </mxCell>
        <mxCell id="tO3C_mZQZG0I-P-b3N0P-43" value="&lt;font style=&quot;font-size: 8px;&quot;&gt;&amp;lt;&amp;lt;includes&amp;gt;&amp;gt;&lt;/font&gt;" style="text;html=1;align=center;verticalAlign=middle;whiteSpace=wrap;rounded=0;" vertex="1" parent="tO3C_mZQZG0I-P-b3N0P-1">
          <mxGeometry x="125" y="35" width="60" height="30" as="geometry" />
        </mxCell>
        <mxCell id="tO3C_mZQZG0I-P-b3N0P-44" value="&lt;font style=&quot;font-size: 8px;&quot;&gt;&amp;lt;&amp;lt;includes&amp;gt;&amp;gt;&lt;/font&gt;" style="text;html=1;align=center;verticalAlign=middle;whiteSpace=wrap;rounded=0;" vertex="1" parent="tO3C_mZQZG0I-P-b3N0P-1">
          <mxGeometry x="137" y="143" width="60" height="30" as="geometry" />
        </mxCell>
        <mxCell id="tO3C_mZQZG0I-P-b3N0P-45" value="&lt;div&gt;&lt;font style=&quot;font-size: 8px;&quot;&gt;&amp;lt;&amp;lt;extends&amp;gt;&amp;gt;&lt;/font&gt;&lt;/div&gt;" style="text;html=1;align=center;verticalAlign=middle;whiteSpace=wrap;rounded=0;" vertex="1" parent="tO3C_mZQZG0I-P-b3N0P-1">
          <mxGeometry x="145" y="80" width="60" height="30" as="geometry" />
        </mxCell>
        <mxCell id="tO3C_mZQZG0I-P-b3N0P-46" value="&lt;div&gt;&lt;font style=&quot;font-size: 8px;&quot;&gt;&amp;lt;&amp;lt;extends&amp;gt;&amp;gt;&lt;/font&gt;&lt;/div&gt;" style="text;html=1;align=center;verticalAlign=middle;whiteSpace=wrap;rounded=0;" vertex="1" parent="tO3C_mZQZG0I-P-b3N0P-1">
          <mxGeometry x="160" y="329" width="60" height="30" as="geometry" />
        </mxCell>
        <mxCell id="tO3C_mZQZG0I-P-b3N0P-47" value="&lt;div&gt;&lt;font style=&quot;font-size: 8px;&quot;&gt;&amp;lt;&amp;lt;extends&amp;gt;&amp;gt;&lt;/font&gt;&lt;/div&gt;" style="text;html=1;align=center;verticalAlign=middle;whiteSpace=wrap;rounded=0;" vertex="1" parent="tO3C_mZQZG0I-P-b3N0P-1">
          <mxGeometry x="145" y="290" width="60" height="30" as="geometry" />
        </mxCell>
        <mxCell id="tO3C_mZQZG0I-P-b3N0P-48" value="&lt;div&gt;&lt;font style=&quot;font-size: 8px;&quot;&gt;&amp;lt;&amp;lt;extends&amp;gt;&amp;gt;&lt;/font&gt;&lt;/div&gt;" style="text;html=1;align=center;verticalAlign=middle;whiteSpace=wrap;rounded=0;" vertex="1" parent="tO3C_mZQZG0I-P-b3N0P-1">
          <mxGeometry x="115" y="258" width="60" height="30" as="geometry" />
        </mxCell>
        <mxCell id="tO3C_mZQZG0I-P-b3N0P-3" value="TourPlanner" style="text;html=1;align=center;verticalAlign=middle;whiteSpace=wrap;rounded=0;" vertex="1" parent="1">
          <mxGeometry x="250" y="-7" width="60" height="30" as="geometry" />
        </mxCell>
        <mxCell id="tO3C_mZQZG0I-P-b3N0P-4" value="Actor" style="shape=umlActor;verticalLabelPosition=bottom;verticalAlign=top;html=1;outlineConnect=0;" vertex="1" parent="1">
          <mxGeometry x="190" y="239" width="30" height="60" as="geometry" />
        </mxCell>
        <mxCell id="tO3C_mZQZG0I-P-b3N0P-16" value="" style="endArrow=none;html=1;rounded=0;exitX=0.5;exitY=0.5;exitDx=0;exitDy=0;exitPerimeter=0;" edge="1" parent="1" source="tO3C_mZQZG0I-P-b3N0P-4" target="tO3C_mZQZG0I-P-b3N0P-5">
          <mxGeometry width="50" height="50" relative="1" as="geometry">
            <mxPoint x="220" y="180" as="sourcePoint" />
            <mxPoint x="270" y="130" as="targetPoint" />
          </mxGeometry>
        </mxCell>
        <mxCell id="tO3C_mZQZG0I-P-b3N0P-17" value="" style="endArrow=none;html=1;rounded=0;exitX=0.5;exitY=0.5;exitDx=0;exitDy=0;exitPerimeter=0;entryX=0.04;entryY=0.714;entryDx=0;entryDy=0;entryPerimeter=0;" edge="1" parent="1" source="tO3C_mZQZG0I-P-b3N0P-4" target="tO3C_mZQZG0I-P-b3N0P-7">
          <mxGeometry width="50" height="50" relative="1" as="geometry">
            <mxPoint x="220" y="344" as="sourcePoint" />
            <mxPoint x="313" y="241" as="targetPoint" />
          </mxGeometry>
        </mxCell>
        <mxCell id="tO3C_mZQZG0I-P-b3N0P-18" value="" style="endArrow=none;html=1;rounded=0;exitX=0.5;exitY=0.5;exitDx=0;exitDy=0;exitPerimeter=0;entryX=0;entryY=0.4;entryDx=0;entryDy=0;entryPerimeter=0;" edge="1" parent="1" source="tO3C_mZQZG0I-P-b3N0P-4" target="tO3C_mZQZG0I-P-b3N0P-8">
          <mxGeometry width="50" height="50" relative="1" as="geometry">
            <mxPoint x="220" y="303" as="sourcePoint" />
            <mxPoint x="328" y="275" as="targetPoint" />
          </mxGeometry>
        </mxCell>
        <mxCell id="tO3C_mZQZG0I-P-b3N0P-19" value="" style="endArrow=none;html=1;rounded=0;exitX=0.5;exitY=0.5;exitDx=0;exitDy=0;exitPerimeter=0;" edge="1" parent="1" source="tO3C_mZQZG0I-P-b3N0P-4" target="tO3C_mZQZG0I-P-b3N0P-9">
          <mxGeometry width="50" height="50" relative="1" as="geometry">
            <mxPoint x="230" y="275" as="sourcePoint" />
            <mxPoint x="341" y="293" as="targetPoint" />
          </mxGeometry>
        </mxCell>
      </root>
    </mxGraphModel>
  </diagram>
</mxfile>
